# xmcd CD database file
#
# Track frame offsets:
#	150
#	24345
#	46393
#	63928
#	85360
#	109115
#	126180
#	143500
#	166818
#	182330
#	206980
#	222720
#	241813
#
# Disc length: 3457 seconds
#
# Revision: 0
# Processed by: cddbd v1.5.1PL0 Copyright (c) Steve Scherf et al.
# Submitted via: CDex 1.51
#
DISCID=b30d7f0d
DTITLE=M's feat. masahiro sayama - Floatin' Time
DYEAR=2002
DGENRE=Jazz
TTITLE0=Cleopatra's Dream/Antony's Scream
TTITLE1=Floatin' Time
TTITLE2=Joy Spring
TTITLE3=Girl Talk
TTITLE4=It's Only a Paper Moon
TTITLE5=Fine Rouge
TTITLE6=Daddy Blue
TTITLE7=Take Flive A-Trains
TTITLE8=When Sunny Gets Blue
TTITLE9=It Might As Well Be Spring
TTITLE10=Setembro (Brazillian Wedding Song)
TTITLE11=Swingin' On A Star
TTITLE12=The First Cry
EXTD=YEAR: 2002
EXTT0=
EXTT1=
EXTT2=
EXTT3=
EXTT4=
EXTT5=
EXTT6=
EXTT7=
EXTT8=
EXTT9=
EXTT10=
EXTT11=
EXTT12=
PLAYORDER=
